<svg xmlns="http://www.w3.org/2000/svg" viewBox="0 0 1920 900" width="1920" height="900" role="img"><defs>
  <linearGradient id="sky" x1="0" y1="0" x2="0" y2="1"><stop offset="0%" stop-color="#262320"/><stop offset="100%" stop-color="#131110"/></linearGradient>
  
  <filter id="grain" x="-5%" y="-5%" width="110%" height="110%">
    <feTurbulence type="fractalNoise" baseFrequency="1.2" numOctaves="4" seed="9" result="n"/>
    <feColorMatrix type="saturate" values="0" in="n"/>
  </filter>
  <filter id="b1"><feGaussianBlur stdDeviation="2.2"/></filter>
  <filter id="b2"><feGaussianBlur stdDeviation="7"/></filter>
  <radialGradient id="vig" cx="50%" cy="46%" r="72%">
    <stop offset="55%" stop-color="#000" stop-opacity="0"/>
    <stop offset="100%" stop-color="#000" stop-opacity="0.30"/>
  </radialGradient></defs>
<rect width="1920" height="900" fill="url(#sky)"/>
<circle cx="1497.6000000000001" cy="198" r="99" fill="#C5A24A" opacity="0.07"/>
<rect x="0" y="594" width="1920" height="40.5" fill="#EDE7DC" opacity="0.040"/><rect x="0" y="634.5" width="1920" height="40.5" fill="#EDE7DC" opacity="0.062"/><rect x="0" y="675" width="1920" height="40.5" fill="#EDE7DC" opacity="0.084"/><rect x="0" y="715.5" width="1920" height="40.5" fill="#EDE7DC" opacity="0.106"/><rect x="0" y="756" width="1920" height="40.5" fill="#EDE7DC" opacity="0.128"/><rect x="0" y="796.5" width="1920" height="40.5" fill="#EDE7DC" opacity="0.150"/><rect x="0" y="837" width="1920" height="40.5" fill="#EDE7DC" opacity="0.172"/><path d="M0 594 H1920" fill="none" stroke="#C5A24A" stroke-width="1" opacity="0.55" stroke-linecap="square"/><path d="M172.79999999999998 126.00000000000001 H779.475928080082" fill="none" stroke="#EDE7DC" stroke-width="1.4" opacity="0.21496547762304546" stroke-linecap="square"/><path d="M172.79999999999998 150.3 H923.2920619726181" fill="none" stroke="#EDE7DC" stroke-width="1.4" opacity="0.1473646203801036" stroke-linecap="square"/><path d="M172.79999999999998 174.60000000000002 H1150.8478768229484" fill="none" stroke="#EDE7DC" stroke-width="1.4" opacity="0.2134846480563283" stroke-linecap="square"/><path d="M172.79999999999998 198.90000000000003 H1357.1256915092467" fill="none" stroke="#EDE7DC" stroke-width="1.4" opacity="0.20990334328264" stroke-linecap="square"/><path d="M172.79999999999998 223.20000000000002 H1086.1116151928902" fill="none" stroke="#EDE7DC" stroke-width="1.4" opacity="0.20570249412208796" stroke-linecap="square"/><path d="M172.79999999999998 247.5 H566.3010648965835" fill="none" stroke="#EDE7DC" stroke-width="1.4" opacity="0.1574767441675067" stroke-linecap="square"/><path d="M172.79999999999998 271.8 H1377.081236207485" fill="none" stroke="#EDE7DC" stroke-width="1.4" opacity="0.1742667590454221" stroke-linecap="square"/><path d="M172.79999999999998 296.1 H740.9186521053314" fill="none" stroke="#EDE7DC" stroke-width="1.4" opacity="0.19720186557620764" stroke-linecap="square"/><path d="M172.79999999999998 320.40000000000003 H1048.2049149155616" fill="none" stroke="#EDE7DC" stroke-width="1.4" opacity="0.16254356984049084" stroke-linecap="square"/><path d="M172.79999999999998 344.70000000000005 H1049.7387863874435" fill="none" stroke="#EDE7DC" stroke-width="1.4" opacity="0.19697761040180922" stroke-linecap="square"/><path d="M172.79999999999998 369 H1056.9477208971978" fill="none" stroke="#EDE7DC" stroke-width="1.4" opacity="0.18040845293551683" stroke-linecap="square"/><path d="M172.79999999999998 393.3 H1390.4769767761231" fill="none" stroke="#EDE7DC" stroke-width="1.4" opacity="0.15416638251394033" stroke-linecap="square"/><path d="M172.79999999999998 417.6 H850.4994307637214" fill="none" stroke="#EDE7DC" stroke-width="1.4" opacity="0.20144359979778528" stroke-linecap="square"/><path d="M172.79999999999998 441.90000000000003 H1009.4242205858232" fill="none" stroke="#EDE7DC" stroke-width="1.4" opacity="0.1119319773837924" stroke-linecap="square"/><path d="M172.79999999999998 466.2 H1361.6073406577111" fill="none" stroke="#EDE7DC" stroke-width="1.4" opacity="0.25404138255864384" stroke-linecap="square"/><path d="M172.79999999999998 490.5 H609.9923159122467" fill="none" stroke="#EDE7DC" stroke-width="1.4" opacity="0.10573372270911932" stroke-linecap="square"/><path d="M172.79999999999998 514.8000000000001 H1203.9340787529945" fill="none" stroke="#EDE7DC" stroke-width="1.4" opacity="0.1689141196385026" stroke-linecap="square"/><path d="M172.79999999999998 539.1 H729.7841741323471" fill="none" stroke="#EDE7DC" stroke-width="1.4" opacity="0.1224768690392375" stroke-linecap="square"/><path d="M172.79999999999998 563.4000000000001 H916.9404177546501" fill="none" stroke="#EDE7DC" stroke-width="1.4" opacity="0.18551009137183427" stroke-linecap="square"/><path d="M172.79999999999998 587.7 H1204.1891324043274" fill="none" stroke="#EDE7DC" stroke-width="1.4" opacity="0.25481923040002585" stroke-linecap="square"/><path d="M172.79999999999998 612 H753.4930873990058" fill="none" stroke="#EDE7DC" stroke-width="1.4" opacity="0.13983580563217402" stroke-linecap="square"/><path d="M172.79999999999998 636.3000000000001 H832.1032661676408" fill="none" stroke="#EDE7DC" stroke-width="1.4" opacity="0.15313407491892578" stroke-linecap="square"/><path d="M172.79999999999998 660.6 H1368.99758695364" fill="none" stroke="#EDE7DC" stroke-width="1.4" opacity="0.11618451345711947" stroke-linecap="square"/><path d="M172.79999999999998 684.9 H794.57470164299" fill="none" stroke="#EDE7DC" stroke-width="1.4" opacity="0.11762926544994116" stroke-linecap="square"/><path d="M172.79999999999998 709.2 H930.8559977173805" fill="none" stroke="#EDE7DC" stroke-width="1.4" opacity="0.20527097467333077" stroke-linecap="square"/><path d="M172.79999999999998 733.5 H1226.7739283323288" fill="none" stroke="#EDE7DC" stroke-width="1.4" opacity="0.13312265019863845" stroke-linecap="square"/><path d="M1362.6000000000001 450 a135 135 0 1 0 270 0 a135 135 0 1 0 -270 0" fill="none" stroke="#C5A24A" stroke-width="1.4" opacity="0.5" stroke-linecap="square"/><path d="M1397.7 450 a99.9 99.9 0 1 0 199.8 0 a99.9 99.9 0 1 0 -199.8 0" fill="none" stroke="#C5A24A" stroke-width="1" opacity="0.3" stroke-linecap="square"/><path d="M1443.6000000000001 450 l37.800000000000004 43.2 l74.25 -83.7" fill="none" stroke="#C5A24A" stroke-width="2.2" opacity="0.75" stroke-linecap="square"/>
<rect width="1920" height="900" fill="url(#vig)" opacity="0.6"/>
<rect width="1920" height="900" filter="url(#grain)" opacity="0.06"/>
</svg>